<?xml version="1.0" encoding="utf-8"?>
<!-- Generator: Adobe Illustrator 15.1.0, SVG Export Plug-In . SVG Version: 6.00 Build 0)  -->
<!DOCTYPE svg PUBLIC "-//W3C//DTD SVG 1.1//EN" "http://www.w3.org/Graphics/SVG/1.1/DTD/svg11.dtd">
<svg version="1.1" id="Layer_1" xmlns="http://www.w3.org/2000/svg" xmlns:xlink="http://www.w3.org/1999/xlink" x="0px" y="0px"
	 width="72px" height="72px" viewBox="0 0 72 72" enable-background="new 0 0 72 72" xml:space="preserve">
<path fill="#FFFFFF" d="M60.832,27.143c0.412-0.556,0.391-1.321-0.053-1.853l-9.375-11.25c-0.285-0.343-0.708-0.541-1.154-0.54
	h-28.5c-0.446-0.001-0.87,0.197-1.155,0.54L11.22,25.29c-0.45,0.536-0.465,1.313-0.038,1.867L35.175,58.65l0,0l0.008,0.007
	c0.084,0.108,0.182,0.204,0.292,0.285c0.031,0.022,0.063,0.043,0.097,0.06c0.087,0.057,0.18,0.102,0.278,0.136
	c0.036,0.016,0.074,0.028,0.112,0.037c0.133,0.048,0.272,0.073,0.413,0.075h0.015c0.139-0.003,0.279-0.025,0.413-0.067
	c0.037-0.015,0.074-0.03,0.119-0.045c0.097-0.036,0.188-0.083,0.271-0.143c0.03-0.022,0.067-0.045,0.098-0.067
	c0.11-0.084,0.208-0.183,0.292-0.293l0.008-0.008l0,0L60.832,27.143z M50.835,18.045l5.587,6.705H48.66L50.835,18.045z M45.51,24.75
	H26.67l-2.82-8.25h24.337L45.51,24.75z M44.535,27.75l-8.198,25.252l-8.64-25.252H44.535z M23.498,24.75h-7.92l5.617-6.743
	L23.498,24.75z M24.525,27.75l7.433,21.734L15.405,27.75H24.525z M47.692,27.75h8.962L40.65,49.425L47.692,27.75z"/>
</svg>
